<svg width="50" height="47" viewBox="0 0 50 47" fill="none" xmlns="http://www.w3.org/2000/svg">
<path d="M0 4H50" stroke="#FF6464" stroke-width="7"/>
<path d="M10.7178 26.3125C10.7178 25.9137 10.6323 25.5679 10.4614 25.2749C10.2905 24.9819 9.96094 24.7052 9.47266 24.4448C8.99251 24.1763 8.28044 23.8914 7.33643 23.5903C6.26221 23.2485 5.27344 22.8416 4.37012 22.3696C3.4668 21.8895 2.73844 21.2954 2.18506 20.5874C1.63981 19.8794 1.36719 19.0046 1.36719 17.9629C1.36719 16.9619 1.65202 16.0911 2.22168 15.3506C2.79134 14.6019 3.57259 14.02 4.56543 13.605C5.56641 13.1899 6.7098 12.9824 7.99561 12.9824C9.31396 12.9824 10.4655 13.2144 11.4502 13.6782C12.4349 14.1421 13.1958 14.7891 13.7329 15.6191C14.2782 16.4411 14.5508 17.3932 14.5508 18.4756H10.73C10.73 17.7594 10.5021 17.1735 10.0464 16.7178C9.59066 16.2539 8.88672 16.022 7.93457 16.022C7.01497 16.022 6.32731 16.2132 5.87158 16.5957C5.42399 16.9782 5.2002 17.4421 5.2002 17.9873C5.2002 18.557 5.49723 19.029 6.09131 19.4033C6.69352 19.7777 7.54395 20.1357 8.64258 20.4775C10.5794 21.0716 12.0483 21.8203 13.0493 22.7236C14.0503 23.627 14.5508 24.8151 14.5508 26.2881C14.5508 27.8587 13.9648 29.0794 12.793 29.9502C11.6211 30.8128 10.0505 31.2441 8.08105 31.2441C7.18587 31.2441 6.30697 31.1302 5.44434 30.9023C4.58984 30.6663 3.81266 30.3083 3.11279 29.8281C2.42106 29.3398 1.86768 28.7254 1.45264 27.9849C1.0376 27.2443 0.830078 26.3654 0.830078 25.3481H4.67529C4.67529 26.3979 4.98047 27.1385 5.59082 27.5698C6.20931 28.0011 7.03939 28.2168 8.08105 28.2168C8.98438 28.2168 9.64762 28.0337 10.0708 27.6675C10.5021 27.3013 10.7178 26.8496 10.7178 26.3125Z" fill="#FF6464"/>
<path d="M31.7227 28.7539C31.4297 29.0876 30.9943 29.4497 30.4165 29.8403C29.8387 30.2228 29.09 30.5524 28.1704 30.8291C27.259 31.1058 26.1522 31.2441 24.8501 31.2441C23.312 31.2441 21.9611 30.9105 20.7974 30.2432C19.6336 29.5677 18.7262 28.5911 18.0752 27.3135C17.4323 26.0277 17.1108 24.4652 17.1108 22.626V21.6128C17.1108 19.7736 17.4201 18.2111 18.0386 16.9253C18.6652 15.6395 19.54 14.6589 20.6631 13.9834C21.7861 13.3079 23.0964 12.9702 24.5938 12.9702C26.1562 12.9702 27.438 13.2266 28.439 13.7393C29.4399 14.2438 30.2008 14.9437 30.7217 15.8389C31.2507 16.734 31.5802 17.7635 31.7104 18.9272H27.9873C27.8571 18.0402 27.5438 17.3403 27.0474 16.8276C26.5509 16.3149 25.7697 16.0586 24.7036 16.0586C23.5155 16.0586 22.5999 16.5265 21.957 17.4624C21.3141 18.3901 20.9927 19.7655 20.9927 21.5884V22.626C20.9927 26.3125 22.3558 28.1558 25.082 28.1558C25.9121 28.1558 26.5387 28.0662 26.9619 27.8872C27.3851 27.7 27.6903 27.5169 27.8774 27.3379V24.3838H24.6548V21.5884H31.7227V28.7539Z" fill="#FF6464"/>
<path d="M44.7178 26.3125C44.7178 25.9137 44.6323 25.5679 44.4614 25.2749C44.2905 24.9819 43.9609 24.7052 43.4727 24.4448C42.9925 24.1763 42.2804 23.8914 41.3364 23.5903C40.2622 23.2485 39.2734 22.8416 38.3701 22.3696C37.4668 21.8895 36.7384 21.2954 36.1851 20.5874C35.6398 19.8794 35.3672 19.0046 35.3672 17.9629C35.3672 16.9619 35.652 16.0911 36.2217 15.3506C36.7913 14.6019 37.5726 14.02 38.5654 13.605C39.5664 13.1899 40.7098 12.9824 41.9956 12.9824C43.314 12.9824 44.4655 13.2144 45.4502 13.6782C46.4349 14.1421 47.1958 14.7891 47.7329 15.6191C48.2782 16.4411 48.5508 17.3932 48.5508 18.4756H44.73C44.73 17.7594 44.5021 17.1735 44.0464 16.7178C43.5907 16.2539 42.8867 16.022 41.9346 16.022C41.015 16.022 40.3273 16.2132 39.8716 16.5957C39.424 16.9782 39.2002 17.4421 39.2002 17.9873C39.2002 18.557 39.4972 19.029 40.0913 19.4033C40.6935 19.7777 41.5439 20.1357 42.6426 20.4775C44.5794 21.0716 46.0483 21.8203 47.0493 22.7236C48.0503 23.627 48.5508 24.8151 48.5508 26.2881C48.5508 27.8587 47.9648 29.0794 46.793 29.9502C45.6211 30.8128 44.0505 31.2441 42.0811 31.2441C41.1859 31.2441 40.307 31.1302 39.4443 30.9023C38.5898 30.6663 37.8127 30.3083 37.1128 29.8281C36.4211 29.3398 35.8677 28.7254 35.4526 27.9849C35.0376 27.2443 34.8301 26.3654 34.8301 25.3481H38.6753C38.6753 26.3979 38.9805 27.1385 39.5908 27.5698C40.2093 28.0011 41.0394 28.2168 42.0811 28.2168C42.9844 28.2168 43.6476 28.0337 44.0708 27.6675C44.5021 27.3013 44.7178 26.8496 44.7178 26.3125Z" fill="#FF6464"/>
<path d="M0 43H50" stroke="#FF6464" stroke-width="7"/>
</svg>
